/vscmnt/brussel_pixiu_data/_data_brussel/112/vsc11236/PredSimResults/SUBJ09opt3D/weighted-trackIG/worker_03.mot
version=1
nRows=10
nColumns=50
inDegrees=yes
endheader
                time	         pelvis_tilt	         pelvis_list	     pelvis_rotation	           pelvis_tx	           pelvis_ty	           pelvis_tz	       hip_flexion_r	     hip_adduction_r	      hip_rotation_r	        knee_angle_r	       ankle_angle_r	         mtp_angle_r	       hip_flexion_l	     hip_adduction_l	      hip_rotation_l	        knee_angle_l	       ankle_angle_l	         mtp_angle_l	    lumbar_extension	      lumbar_bending	     lumbar_rotation	 ercspn_r/activation	 intobl_r/activation	 extobl_r/activation	    abd_r/activation	    add_r/activation	hamstrings_r/activation	bifemsh_r/activation	glut_max_r/activation	iliopsoas_r/activation	rect_fem_r/activation	  vasti_r/activation	gastroc_r/activation	 soleus_r/activation	tib_ant_r/activation	 ercspn_l/activation	 intobl_l/activation	 extobl_l/activation	    abd_l/activation	    add_l/activation	hamstrings_l/activation	bifemsh_l/activation	glut_max_l/activation	iliopsoas_l/activation	rect_fem_l/activation	  vasti_l/activation	gastroc_l/activation	 soleus_l/activation	tib_ant_l/activation	
          0.00000000	         -4.29544272	         -0.91258873	          7.43698768	          0.00000000	          0.99208615	         -0.00161045	         28.43526710	         -0.89793353	         -7.50879724	         -4.35399112	          3.89247661	          0.22235487	        -12.28558911	         -1.95584847	         -5.42485654	        -10.96807277	          4.70699042	         36.57364403	        -13.51668513	         -1.80766553	         -8.23313438	          0.03590494	          0.17942100	          0.04129757	          0.00999999	          0.23947487	          0.06160016	          0.08727084	          0.01914385	          0.13812658	          0.01917097	          0.01113191	          0.01811309	          0.01148724	          0.31142060	          0.00999999	          0.00999999	          0.00999999	          0.03999295	          0.00999999	          0.01625738	          0.29545061	          0.01485918	          0.03452130	          0.00999999	          0.00999999	          0.33691319	          0.24972485	          0.01410950	
          0.01313899	         -4.36789214	         -0.99604837	          7.41989001	          0.01988140	          0.98980371	         -0.00079939	         28.37586610	         -0.66563345	         -7.97620298	         -5.75853548	          3.38799043	          0.23974209	        -12.87454933	         -2.25770699	         -5.89176511	        -11.76601608	          3.65232265	         38.26391170	        -12.98286258	         -1.36373505	         -8.38090494	          0.02945483	          0.14718908	          0.03387871	          0.00999999	          0.29372091	          0.05053406	          0.07159315	          0.09439120	          0.11331295	          0.01572702	          0.00999999	          0.01485918	          0.01485918	          0.32856012	          0.03323601	          0.00999999	          0.00999999	          0.03280845	          0.01000012	          0.02927808	          0.24682215	          0.01218982	          0.08119950	          0.00999999	          0.00999999	          0.30874963	          0.22872843	          0.01157481	
          0.02627797	         -4.41326925	         -1.12359578	          7.38302124	          0.04034733	          0.98759975	          0.00000498	         28.14505081	         -0.45990255	         -8.20500204	         -7.31663820	          2.95158968	          0.20754756	        -13.33091570	         -2.63142951	         -6.37254639	        -12.89571226	          2.49253861	         39.94516922	        -12.39891018	         -0.85899418	         -8.49362895	          0.02416345	          0.12074743	          0.02779260	          0.07926578	          0.24095568	          0.06251891	          0.05873187	          0.11746885	          0.09295695	          0.01290175	          0.00999999	          0.01218982	          0.01218982	          0.37219275	          0.02726536	          0.00999999	          0.00999999	          0.02691461	          0.00999999	          0.02872313	          0.20248201	          0.00999999	          0.08632910	          0.00999999	          0.00999999	          0.27429614	          0.20337181	          0.00999999	
          0.03941696	         -4.43868987	         -1.27191857	          7.31565491	          0.06100163	          0.98573041	          0.00090690	         27.80158783	         -0.23285825	         -8.45547267	         -8.70067346	          2.32117281	          0.19579074	        -13.55334462	         -3.06143651	         -6.86962760	        -14.47487725	          1.18566799	         41.54280690	        -11.81101453	         -0.33177830	         -8.56448714	          0.02357811	          0.09905587	          0.02279982	          0.13133457	          0.23034541	          0.06242357	          0.04818103	          0.14506224	          0.07625778	          0.01058403	          0.00999999	          0.00999999	          0.00999999	          0.41844895	          0.02236730	          0.00999999	          0.00999999	          0.02207956	          0.00999999	          0.03775647	          0.16610731	          0.00999999	          0.12437790	          0.00999999	          0.00999999	          0.22502046	          0.16683726	          0.00999999	
          0.05255595	         -4.44736646	         -1.43265528	          7.21920835	          0.08142491	          0.98442066	          0.00191893	         27.49580160	          0.00383167	         -8.73206883	        -10.16322000	          1.75652089	          0.16149063	        -13.44303257	         -3.54894880	         -7.37859109	        -16.62876395	         -0.23782981	         42.84432590	        -11.26765062	          0.20913003	         -8.59257411	          0.02756193	          0.08126106	          0.01870397	          0.18699807	          0.22983596	          0.06353489	          0.03952559	          0.15760656	          0.06255852	          0.00999999	          0.12146864	          0.00999999	          0.00999999	          0.44317240	          0.07633486	          0.00999999	          0.00999999	          0.01811309	          0.04558652	          0.04929628	          0.13626712	          0.00999999	          0.11555258	          0.00999999	          0.00999999	          0.18459686	          0.13686593	          0.00999999	
          0.06569494	         -4.44316433	         -1.60698206	          7.10201297	          0.10131665	          0.98390646	          0.00302003	         27.24791466	          0.25469324	         -8.97486891	        -11.75582460	          1.56800326	          0.11697600	        -12.93711593	         -4.10299142	         -7.91391464	        -19.40993408	         -1.75824836	         43.55012601	        -10.79739251	          0.76544287	         -8.58221182	          0.03013405	          0.06666299	          0.01534391	          0.20660595	          0.23116945	          0.05935298	          0.03242505	          0.19390540	          0.05132025	          0.00999999	          0.21700297	          0.00999999	          0.00999999	          0.43922303	          0.09353652	          0.00999999	          0.00999999	          0.01485918	          0.13936277	          0.05011983	          0.11178753	          0.00999999	          0.10573148	          0.00999999	          0.00999999	          0.15143513	          0.11227878	          0.00999999	
          0.07883392	         -4.42952873	         -1.77205007	          6.96113656	          0.12051137	          0.98434086	          0.00416988	         26.99996000	          0.50693023	         -9.16738293	        -13.36951750	          1.83332699	          0.08655506	        -12.01175774	         -4.70832287	         -8.51166492	        -22.84491685	         -3.25684200	         43.17314818	        -10.41668391	          1.31330837	         -8.53009822	          0.02691460	          0.05468738	          0.01258747	          0.20669072	          0.24997574	          0.06266284	          0.02660008	          0.19619031	          0.04210087	          0.00999999	          0.26677140	          0.00999999	          0.00999999	          0.38918916	          0.09997902	          0.00999999	          0.00999999	          0.01218982	          0.20237175	          0.05029180	          0.09170556	          0.00999999	          0.08673744	          0.00999999	          0.00999999	          0.12423070	          0.09210856	          0.00999999	
          0.09197291	         -4.40846742	         -1.89857059	          6.79347940	          0.13901092	          0.98569551	          0.00532471	         26.66242886	          0.74467984	         -9.29649560	        -14.82671706	          2.45523014	          0.09818490	        -10.70316366	         -5.34274249	         -9.15634359	        -26.82224836	         -4.86150352	         41.71602277	        -10.12368057	          1.82155344	         -8.43367801	          0.02207955	          0.04486312	          0.01032620	          0.19946916	          0.26024780	          0.06388336	          0.02182154	          0.19532577	          0.03453770	          0.00999999	          0.29624914	          0.00999999	          0.00999999	          0.32810666	          0.08571496	          0.00999999	          0.00999999	          0.00999999	          0.26605016	          0.04890117	          0.07523120	          0.00999999	          0.07115557	          0.00999999	          0.00999999	          0.10191339	          0.07556180	          0.02495232	
          0.10511190	         -4.38051584	         -1.96330691	          6.59597769	          0.15686138	          0.98782044	          0.00643863	         26.15542207	          0.95729918	         -9.33983566	        -15.94826560	          3.17051581	          0.20568408	         -9.08017345	         -5.97997623	         -9.79523219	        -31.19167670	         -6.51313548	         39.02010801	         -9.91226335	          2.26654404	         -8.28718249	          0.01811309	          0.03680372	          0.00999999	          0.20380768	          0.21922452	          0.06518724	          0.01790143	          0.16794546	          0.02833321	          0.00999999	          0.28579234	          0.00999999	          0.00999999	          0.27443873	          0.08479704	          0.03856151	          0.00999999	          0.00999999	          0.22429190	          0.04011636	          0.06171636	          0.00999999	          0.05837289	          0.00999999	          0.00999999	          0.08360525	          0.06198757	          0.08177779	
          0.11825088	         -4.34476918	         -1.96084907	          6.37353488	          0.17409244	          0.99046908	          0.00748542	         25.47136110	          1.13704859	         -9.29529909	        -16.70550446	          3.84236847	          0.40728710	         -7.22607777	         -6.59579582	        -10.32968181	        -35.81333162	         -7.89520334	         34.85332021	         -9.77787602	          2.63888334	         -8.08365741	          0.01485918	          0.03019215	          0.00999999	          0.18342052	          0.18770490	          0.06794199	          0.01468554	          0.14715948	          0.02324331	          0.00999999	          0.28199497	          0.00999999	          0.00999999	          0.23048604	          0.11161652	          0.06974065	          0.04410791	          0.00999999	          0.18399918	          0.03290970	          0.05062938	          0.00999999	          0.04788655	          0.00999999	          0.00999999	          0.06858606	          0.05085187	          0.19129107	
